<svg viewBox="0 0 65 66" fill="currentColor" stroke="none" xmlns="http://www.w3.org/2000/svg">
<g clip-path="url(#clip0_11_129)">
<path fill-rule="evenodd" clip-rule="evenodd" d="M41.8387 10.9594C34.5163 11.6092 28.5441 16.9622 26.9293 24.3229C26.7245 25.2565 26.6933 25.7002 26.6954 27.6586C26.6979 30.2052 26.8395 31.1258 27.5364 33.1281C28.6575 36.3487 30.9324 39.4035 33.6231 41.3013C35.3993 42.554 38.2729 43.8004 40.2438 44.1729C41.2633 44.3656 45.5595 44.3612 46.5463 44.1664C48.4243 43.7959 51.0684 42.6829 52.8338 41.5199C53.8691 40.8379 56.2917 38.5042 56.696 37.7994C57.3601 36.6416 56.8893 35.1754 55.7395 34.8206C55.5373 34.7582 54.7593 34.6299 54.0107 34.5353C52.406 34.3329 51.1876 33.9994 49.9734 33.4303C46.5394 31.8211 44.032 28.7963 43.0114 25.032C42.7961 24.2379 42.769 23.9001 42.7666 21.9851C42.764 19.9343 42.7781 19.781 43.0611 18.7805C43.4078 17.5547 44.0593 16.1222 44.7652 15.0335C45.3972 14.0589 45.7559 13.2944 45.7572 12.9197C45.76 12.1271 45.0651 11.2464 44.2449 11.0028C43.6875 10.8372 43.2954 10.8302 41.8387 10.9594ZM39.3488 16.6959C38.7874 18.4461 38.6062 19.4823 38.5406 21.3173C38.4176 24.757 39.0657 27.3936 40.7774 30.4167C42.6293 33.6875 46.1898 36.6538 49.6457 37.805C49.9635 37.9109 50.2637 38.0305 50.3127 38.0707C50.4345 38.1708 49.1041 38.9345 48.1248 39.3267C43.376 41.2281 38.1014 40.1689 34.5162 36.5937C32.6839 34.7666 31.549 32.6823 30.9861 30.1103C30.7425 28.9979 30.7439 26.3552 30.9884 25.2141C31.722 21.7914 33.6093 19.0064 36.5097 17.0664C37.2806 16.5508 39.532 15.5137 39.642 15.6236C39.6632 15.6447 39.5312 16.1273 39.3488 16.6959Z" />
<path d="M5.23671 38.1916C8.93788 41.8917 10.1916 43.0618 10.6171 43.2135C11.3067 43.459 11.6838 43.4685 12.4212 43.2583C12.9085 43.1195 13.7524 42.3462 17.755 38.3708C20.3702 35.7734 22.63 33.4554 22.7768 33.2198C23.8617 31.4796 22.5399 29.0922 20.4851 29.0803C19.5076 29.0746 18.9859 29.4402 16.6253 31.7851L14.3362 34.0591L14.3354 24.2192C14.335 17.5426 14.2853 14.1985 14.181 13.8168C13.8513 12.6098 12.8012 11.7774 11.6084 11.7774C10.4569 11.7774 9.61271 12.3256 9.11762 13.3949C8.87191 13.9257 8.857 14.5251 8.85405 24.0019L8.85096 34.0463L6.49326 31.7242C3.93684 29.2066 3.59815 28.9919 2.36903 29.1101C1.58027 29.1859 0.885888 29.6101 0.407402 30.3083C-0.0256548 30.9402 -0.135501 32.216 0.184896 32.8911C0.309229 33.153 2.58253 35.5383 5.23671 38.1916Z" />
</g>
<defs>
<clipPath id="clip0_11_129">
<rect width="65" height="65" fill="white" transform="translate(0 0.546204)"/>
</clipPath>
</defs>
</svg>
