<svg viewBox="0 0 65 66" fill="currentColor" stroke="none" xmlns="http://www.w3.org/2000/svg">
<g clip-path="url(#clip0_9_92)">
<path fill-rule="evenodd" clip-rule="evenodd" d="M41.8387 10.9594C34.5163 11.6092 28.5441 16.9622 26.9293 24.3229C26.7245 25.2565 26.6933 25.7002 26.6954 27.6586C26.6979 30.2052 26.8395 31.1258 27.5364 33.1281C28.6575 36.3487 30.9324 39.4035 33.6231 41.3013C35.3993 42.554 38.2729 43.8004 40.2438 44.1729C41.2633 44.3656 45.5595 44.3612 46.5463 44.1664C48.4243 43.7959 51.0684 42.6829 52.8338 41.5199C53.8691 40.8379 56.2917 38.5042 56.696 37.7994C57.3601 36.6416 56.8893 35.1754 55.7395 34.8206C55.5373 34.7582 54.7593 34.6299 54.0107 34.5353C52.406 34.3329 51.1876 33.9994 49.9734 33.4303C46.5394 31.8211 44.032 28.7963 43.0114 25.032C42.7961 24.2379 42.769 23.9001 42.7666 21.9851C42.764 19.9343 42.7781 19.781 43.0611 18.7805C43.4078 17.5547 44.0593 16.1222 44.7652 15.0335C45.3972 14.0589 45.7559 13.2944 45.7572 12.9197C45.76 12.1271 45.0651 11.2464 44.2449 11.0028C43.6875 10.8372 43.2954 10.8302 41.8387 10.9594ZM39.3488 16.6959C38.7874 18.4461 38.6062 19.4823 38.5406 21.3173C38.4176 24.757 39.0657 27.3936 40.7774 30.4167C42.6293 33.6875 46.1898 36.6538 49.6457 37.805C49.9635 37.9109 50.2637 38.0305 50.3127 38.0707C50.4345 38.1708 49.1041 38.9345 48.1248 39.3267C43.376 41.2281 38.1014 40.1689 34.5162 36.5937C32.6839 34.7666 31.549 32.6823 30.9861 30.1103C30.7425 28.9979 30.7439 26.3552 30.9884 25.2141C31.722 21.7914 33.6093 19.0064 36.5097 17.0664C37.2806 16.5508 39.532 15.5137 39.642 15.6236C39.6632 15.6447 39.5312 16.1273 39.3488 16.6959Z" />
<path d="M5.23671 16.9932C8.93788 13.2931 10.1916 12.1229 10.6171 11.9713C11.3067 11.7257 11.6838 11.7163 12.4212 11.9265C12.9085 12.0653 13.7524 12.8386 17.755 16.814C20.3702 19.4113 22.63 21.7294 22.7768 21.965C23.8617 23.7052 22.5399 26.0926 20.4851 26.1045C19.5076 26.1102 18.9859 25.7446 16.6253 23.3997L14.3362 21.1257L14.3354 30.9656C14.335 37.6422 14.2853 40.9863 14.181 41.368C13.8513 42.575 12.8012 43.4074 11.6084 43.4074C10.4569 43.4074 9.61271 42.8591 9.11762 41.7899C8.87191 41.2591 8.857 40.6597 8.85405 31.1829L8.85096 21.1385L6.49326 23.4606C3.93684 25.9782 3.59815 26.1929 2.36903 26.0747C1.58027 25.9989 0.885888 25.5747 0.407402 24.8765C-0.0256548 24.2446 -0.135501 22.9688 0.184896 22.2937C0.309229 22.0318 2.58253 19.6465 5.23671 16.9932Z" />
</g>
<defs>
<clipPath id="clip0_9_92">
<rect width="65" height="65" fill="white" transform="translate(0 0.546196)"/>
</clipPath>
</defs>
</svg>
