<svg viewBox="0 0 65 66" fill="currentColor" stroke="none" xmlns="http://www.w3.org/2000/svg">
<g clip-path="url(#clip0_10_106)">
<path fill-rule="evenodd" clip-rule="evenodd" d="M45.6089 14.5637C45.2497 14.7065 44.7345 15.1942 44.5305 15.5847C44.2884 16.0481 44.3079 19.0483 44.5564 19.5719C45.1324 20.7858 46.7875 21.0451 47.7589 20.0738C48.3318 19.501 48.4541 18.9595 48.4007 17.2353C48.3599 15.9167 48.335 15.783 48.0511 15.3538C47.5366 14.5763 46.4562 14.2268 45.6089 14.5637ZM33.7445 19.4844C32.6932 20.1396 32.3162 21.1226 32.7538 22.0678C33.0296 22.6634 35.0395 24.6174 35.5496 24.7857C36.1579 24.9865 36.9799 24.8732 37.4351 24.5259C38.256 23.8999 38.4715 22.6766 37.9048 21.859C37.4505 21.2034 35.7595 19.6188 35.3167 19.4338C34.7879 19.213 34.1471 19.2335 33.7445 19.4844ZM57.3608 19.4419C56.8849 19.696 54.8665 21.7255 54.6627 22.155C54.2285 23.0702 54.6672 24.2293 55.6402 24.7376C56.0693 24.9618 56.9004 24.9348 57.3988 24.6807C58.0512 24.3478 59.97 22.2911 60.1067 21.7779C60.4156 20.619 59.5112 19.394 58.2805 19.3043C57.8914 19.2759 57.5863 19.3216 57.3608 19.4419ZM44.4281 22.1456C42.148 22.5721 40.1583 23.6174 38.533 25.2426C36.7706 27.0051 35.7744 29.0372 35.4032 31.6274C34.9138 35.0422 36.1182 38.5166 38.6445 40.9778C43.0874 45.3063 50.1847 45.1308 54.4681 40.5864C56.3997 38.5369 57.4141 35.9419 57.4141 33.0495C57.4141 30.0264 56.3592 27.4363 54.2723 25.3356C52.7388 23.792 51.0092 22.782 49.0831 22.3053C47.8198 21.9927 45.6444 21.918 44.4281 22.1456ZM48.4766 26.3677C51.1362 27.1936 53.1308 29.7323 53.3305 32.5458C53.5599 35.7771 51.5257 38.7639 48.4204 39.7552C47.5705 40.0265 45.5899 40.0827 44.653 39.862C42.395 39.3303 40.196 37.1479 39.5955 34.843C39.372 33.9843 39.372 32.1147 39.5955 31.256C39.8877 30.1347 40.5135 29.0829 41.4541 28.1328C42.16 27.4197 42.5025 27.174 43.3709 26.7576C44.0432 26.4351 44.6943 26.2118 45.1591 26.1441C46.1204 26.0042 47.6347 26.1062 48.4766 26.3677ZM28.9067 31.2382C28.4296 31.4461 27.8654 32.1273 27.7761 32.6035C27.6071 33.5041 28.0146 34.4102 28.7638 34.8003C29.1209 34.9863 29.4195 35.0175 30.8368 35.0175C32.2601 35.0175 32.557 34.9862 32.9499 34.7943C33.7366 34.4101 34.1509 33.5271 33.9776 32.6035C33.8859 32.1149 33.317 31.4401 32.8222 31.2334C32.3281 31.027 29.3831 31.0306 28.9067 31.2382ZM59.7815 31.2785C59.5667 31.3866 59.2431 31.6868 59.0627 31.9456C58.7945 32.3299 58.7344 32.5321 58.7344 33.0495C58.7344 33.5669 58.7945 33.7691 59.0627 34.1534C59.598 34.9209 59.9095 35.0172 61.8592 35.0172C63.814 35.0172 64.1197 34.9218 64.6638 34.142C64.9366 33.7509 65 33.545 65 33.0495C65 32.554 64.9366 32.3481 64.6638 31.957C64.1197 31.1772 63.814 31.0818 61.8592 31.0818C60.4772 31.0818 60.1017 31.1174 59.7815 31.2785ZM35.4314 41.3534C34.9478 41.5744 32.9852 43.5535 32.7428 44.0646C32.0036 45.6222 33.8727 47.4287 35.4089 46.6411C35.8539 46.4129 37.6702 44.6542 37.9828 44.1486C38.4564 43.3827 38.1918 42.1502 37.4289 41.5682C36.9634 41.2133 35.9713 41.1066 35.4314 41.3534ZM55.5464 41.4185C54.7074 41.9301 54.3096 42.9488 54.6024 43.8358C54.7698 44.343 56.812 46.435 57.3657 46.6662C57.5755 46.7539 57.9227 46.8257 58.1371 46.8257C59.4151 46.8257 60.4308 45.5369 60.1078 44.3251C59.9751 43.8277 58.3157 42.0189 57.5356 41.5214C56.9198 41.1289 56.0917 41.086 55.5464 41.4185ZM45.8473 45.4898C45.2709 45.6609 44.9529 45.9102 44.6484 46.4298C44.3886 46.8731 44.3719 47.0017 44.3719 48.5562C44.3719 50.3961 44.4292 50.6051 45.0948 51.1893C46.0231 52.0045 47.5653 51.7164 48.1675 50.6153C48.3311 50.3161 48.3641 49.9593 48.3641 48.4949V46.7341L48.0148 46.3019C47.4113 45.5551 46.6227 45.2597 45.8473 45.4898Z" />
<path d="M5.23671 22.447C8.93788 18.7469 10.1916 17.5767 10.6171 17.4251C11.3067 17.1796 11.6838 17.1701 12.4212 17.3803C12.9085 17.5191 13.7524 18.2924 17.755 22.2678C20.3702 24.8652 22.63 27.1832 22.7768 27.4188C23.8617 29.159 22.5399 31.5464 20.4851 31.5583C19.5076 31.564 18.9859 31.1984 16.6253 28.8535L14.3362 26.5795L14.3354 36.4194C14.335 43.096 14.2853 46.4401 14.181 46.8218C13.8513 48.0288 12.8012 48.8612 11.6084 48.8612C10.4569 48.8612 9.61271 48.313 9.11762 47.2437C8.87191 46.7129 8.857 46.1135 8.85405 36.6367L8.85096 26.5923L6.49326 28.9144C3.93684 31.432 3.59815 31.6467 2.36903 31.5285C1.58027 31.4527 0.885888 31.0285 0.407402 30.3303C-0.0256548 29.6984 -0.135501 28.4226 0.184896 27.7475C0.309229 27.4856 2.58253 25.1003 5.23671 22.447Z" />
</g>
<defs>
<clipPath id="clip0_10_106">
<rect width="65" height="65" fill="white" transform="translate(0 0.546196)"/>
</clipPath>
</defs>
</svg>
