<svg viewBox="0 0 65 66" fill="currentColor" stroke="none" xmlns="http://www.w3.org/2000/svg">
<g clip-path="url(#clip0_11_132)">
<path fill-rule="evenodd" clip-rule="evenodd" d="M45.6089 14.0175C45.2497 14.1603 44.7345 14.6481 44.5305 15.0385C44.2884 15.5019 44.3079 18.5021 44.5564 19.0257C45.1324 20.2396 46.7875 20.4989 47.7589 19.5276C48.3318 18.9548 48.4541 18.4133 48.4007 16.6891C48.3599 15.3705 48.335 15.2368 48.0511 14.8076C47.5366 14.0301 46.4562 13.6806 45.6089 14.0175ZM33.7445 18.9382C32.6932 19.5934 32.3162 20.5764 32.7538 21.5216C33.0296 22.1172 35.0395 24.0712 35.5496 24.2395C36.1579 24.4403 36.9799 24.327 37.4351 23.9797C38.256 23.3537 38.4715 22.1304 37.9048 21.3128C37.4505 20.6572 35.7595 19.0726 35.3167 18.8876C34.7879 18.6668 34.1471 18.6873 33.7445 18.9382ZM57.3608 18.8957C56.8849 19.1498 54.8665 21.1793 54.6627 21.6088C54.2285 22.524 54.6672 23.6831 55.6402 24.1914C56.0693 24.4156 56.9004 24.3886 57.3988 24.1345C58.0512 23.8016 59.97 21.7449 60.1067 21.2317C60.4156 20.0728 59.5112 18.8478 58.2805 18.7581C57.8914 18.7297 57.5863 18.7754 57.3608 18.8957ZM44.4281 21.5994C42.148 22.0259 40.1583 23.0712 38.533 24.6964C36.7706 26.4589 35.7744 28.491 35.4032 31.0812C34.9138 34.496 36.1182 37.9704 38.6445 40.4316C43.0874 44.7602 50.1847 44.5846 54.4681 40.0402C56.3997 37.9907 57.4141 35.3957 57.4141 32.5033C57.4141 29.4802 56.3592 26.8901 54.2723 24.7894C52.7388 23.2458 51.0092 22.2358 49.0831 21.7591C47.8198 21.4465 45.6444 21.3718 44.4281 21.5994ZM48.4766 25.8215C51.1362 26.6474 53.1308 29.1861 53.3305 31.9996C53.5599 35.2309 51.5257 38.2177 48.4204 39.209C47.5705 39.4803 45.5899 39.5365 44.653 39.3158C42.395 38.7841 40.196 36.6017 39.5955 34.2968C39.372 33.4381 39.372 31.5686 39.5955 30.7098C39.8877 29.5885 40.5135 28.5367 41.4541 27.5866C42.16 26.8735 42.5025 26.6278 43.3709 26.2114C44.0432 25.8889 44.6943 25.6656 45.1591 25.5979C46.1204 25.458 47.6347 25.56 48.4766 25.8215ZM28.9067 30.692C28.4296 30.8999 27.8654 31.5811 27.7761 32.0573C27.6071 32.9579 28.0146 33.8641 28.7638 34.2541C29.1209 34.4401 29.4195 34.4713 30.8368 34.4713C32.2601 34.4713 32.557 34.44 32.9499 34.2481C33.7366 33.8639 34.1509 32.9809 33.9776 32.0573C33.8859 31.5687 33.317 30.8939 32.8222 30.6872C32.3281 30.4809 29.3831 30.4845 28.9067 30.692ZM59.7815 30.7323C59.5667 30.8404 59.2431 31.1406 59.0627 31.3994C58.7945 31.7837 58.7344 31.9859 58.7344 32.5033C58.7344 33.0207 58.7945 33.2229 59.0627 33.6072C59.598 34.3747 59.9095 34.471 61.8592 34.471C63.814 34.471 64.1197 34.3756 64.6638 33.5958C64.9366 33.2047 65 32.9988 65 32.5033C65 32.0078 64.9366 31.8019 64.6638 31.4108C64.1197 30.631 63.814 30.5356 61.8592 30.5356C60.4772 30.5356 60.1017 30.5712 59.7815 30.7323ZM35.4314 40.8072C34.9478 41.0282 32.9852 43.0073 32.7428 43.5184C32.0036 45.076 33.8727 46.8825 35.4089 46.0949C35.8539 45.8667 37.6702 44.108 37.9828 43.6024C38.4564 42.8365 38.1918 41.604 37.4289 41.022C36.9634 40.6671 35.9713 40.5604 35.4314 40.8072ZM55.5464 40.8724C54.7074 41.3839 54.3096 42.4026 54.6024 43.2896C54.7698 43.7968 56.812 45.8888 57.3657 46.12C57.5755 46.2077 57.9227 46.2795 58.1371 46.2795C59.4151 46.2795 60.4308 44.9907 60.1078 43.779C59.9751 43.2815 58.3157 41.4727 57.5356 40.9753C56.9198 40.5827 56.0917 40.5398 55.5464 40.8724ZM45.8473 44.9436C45.2709 45.1147 44.9529 45.3641 44.6484 45.8836C44.3886 46.3269 44.3719 46.4555 44.3719 48.01C44.3719 49.8499 44.4292 50.0589 45.0948 50.6431C46.0231 51.4583 47.5653 51.1702 48.1675 50.0691C48.3311 49.7699 48.3641 49.4131 48.3641 47.9487V46.1879L48.0148 45.7557C47.4113 45.0089 46.6227 44.7135 45.8473 44.9436Z" />
<path d="M5.23671 43.0992C8.93788 46.7993 10.1916 47.9695 10.6171 48.1211C11.3067 48.3666 11.6838 48.3761 12.4212 48.1659C12.9085 48.0271 13.7524 47.2538 17.755 43.2784C20.3702 40.681 22.63 38.363 22.7768 38.1274C23.8617 36.3872 22.5399 33.9998 20.4851 33.9879C19.5076 33.9822 18.9859 34.3478 16.6253 36.6927L14.3362 38.9667L14.3354 29.1268C14.335 22.4502 14.2853 19.1061 14.181 18.7244C13.8513 17.5174 12.8012 16.685 11.6084 16.685C10.4569 16.685 9.61271 17.2332 9.11762 18.3025C8.87191 18.8333 8.857 19.4327 8.85405 28.9095L8.85096 38.9539L6.49326 36.6318C3.93684 34.1142 3.59815 33.8995 2.36903 34.0177C1.58027 34.0935 0.885888 34.5177 0.407402 35.2159C-0.0256548 35.8478 -0.135501 37.1236 0.184896 37.7987C0.309229 38.0606 2.58253 40.4459 5.23671 43.0992Z" />
</g>
<defs>
<clipPath id="clip0_11_132">
<rect width="65" height="65" fill="white"/>
</clipPath>
</defs>
</svg>
